<?xml version="1.0" encoding="utf-8"?>
<!-- Generator: Adobe Illustrator 24.1.1, SVG Export Plug-In . SVG Version: 6.00 Build 0)  -->
<svg version="1.1" id="Layer_1" xmlns="http://www.w3.org/2000/svg" xmlns:xlink="http://www.w3.org/1999/xlink" x="0px" y="0px"
	 viewBox="0 0 512 512" style="enable-background:new 0 0 512 512;" xml:space="preserve">
<g>
	<path d="M256,384c-42.3,0-76.8-34.5-76.8-76.8s34.5-76.8,76.8-76.8s76.8,34.5,76.8,76.8S298.4,384,256,384z M256,256
		c-28.2,0-51.2,23-51.2,51.2c0,28.2,23,51.2,51.2,51.2c28.2,0,51.2-23,51.2-51.2C307.3,279,284.3,256,256,256z"/>
	<path d="M407.2,52.6l-4.5-18.1C397.8,15.2,378.4,0,358.4,0H153.6c-20,0-39.4,15.2-44.2,34.5l-4.5,18.1c-16.2,4.5-28.1,19.4-28.1,37
		v25.6c0,17,11.1,31.4,26.3,36.4l23.1,322.9c1.5,20.6,19.5,37.4,40.2,37.4h179.2c20.7,0,38.7-16.8,40.2-37.4l23.1-322.9
		c15.3-5.1,26.3-19.5,26.3-36.4V89.6C435.2,72,423.3,57.2,407.2,52.6L407.2,52.6z M153.6,25.6h204.8c8.2,0,17.4,7.2,19.4,15.1
		l2.6,10.5H131.6l2.6-10.5C136.2,32.8,145.5,25.6,153.6,25.6L153.6,25.6z M381.3,179.2H130.8l-1.8-25.6h254.1L381.3,179.2
		L381.3,179.2z M364.8,409.6H147.3l-14.6-204.8h246.8L364.8,409.6L364.8,409.6z M345.6,486.4H166.4c-7.4,0-14.1-6.3-14.7-13.6
		l-2.7-37.5H363l-2.7,37.5C359.8,480.1,353,486.4,345.6,486.4L345.6,486.4z M409.6,115.2c0,7.1-5.7,12.8-12.8,12.8H115.3
		c-7.1,0-12.8-5.7-12.8-12.8V89.6c0-7,5.7-12.8,12.8-12.8h0.1h0.1h281.5c7.1,0,12.8,5.7,12.8,12.8L409.6,115.2L409.6,115.2z"/>
</g>
</svg>
